<?xml version="1.0"?>
<svg xmlns="http://www.w3.org/2000/svg" xmlns:xlink="http://www.w3.org/1999/xlink" version="1.1" id="Layer_1" x="0px" y="0px" width="100%" viewBox="0 0 286 256" enable-background="new 0 0 286 256" xml:space="preserve" style="background-color:transparent;">
<path fill="#000000" opacity="1.000000" stroke="none" d=" M173.000000,257.000000   C115.333344,257.000000 58.166679,257.000000 1.000015,257.000000   C1.000010,171.666687 1.000010,86.333366 1.000005,1.000038   C96.333305,1.000026 191.666611,1.000026 286.999939,1.000013   C286.999939,86.333290 286.999939,171.666580 286.999969,256.999939   C249.166672,257.000000 211.333328,257.000000 173.000000,257.000000  M32.997730,83.999573   C32.997730,83.999573 33.037468,83.979797 32.930897,83.447075   C32.622501,83.293945 32.314106,83.140808 31.999826,83.000565   C31.999826,83.000565 32.011623,82.992073 31.789480,82.366272   C29.860430,80.575859 27.931379,78.785446 25.999859,77.000000   C25.999859,77.000000 26.004858,76.997818 25.810949,76.328644   C23.864609,72.654358 21.232199,69.177177 20.108694,65.266495   C17.418167,55.901348 19.316000,46.593704 21.662386,37.365639   C22.494102,34.094597 22.708399,30.666561 23.204559,27.310196   C22.644779,27.106094 22.085001,26.901991 21.525221,26.697889   C20.335764,28.454126 19.146309,30.210363 17.996893,31.992329   C17.996893,31.992329 17.965521,31.957167 17.352470,32.195408   C16.882141,33.121578 16.411810,34.047752 15.472483,35.136669   C15.174205,35.333481 15.009691,35.609901 14.459964,36.082932   C14.382708,36.387211 14.305452,36.691490 13.977815,37.622673   C13.664926,38.418083 13.352036,39.213490 12.416396,40.346050   C11.676726,42.686703 10.937057,45.027351 10.147360,47.490723   C10.147360,47.490723 10.246393,47.578789 10.094812,47.842472   C10.055752,48.052834 10.093694,48.248238 9.760206,48.849819   C9.572625,49.579105 9.385043,50.308388 9.081615,51.767891   C9.039845,52.504745 8.998074,53.241596 8.199665,54.405197   C8.467377,59.666988 8.261188,65.005783 9.101064,70.174606   C10.871156,81.068245 15.905996,90.409042 24.158298,98.490128   C24.353600,98.788696 24.628307,98.959732 25.081450,99.685097   C26.849707,101.671906 28.617964,103.658714 30.769117,106.058350   C31.299864,106.586845 31.830608,107.115349 32.764908,108.158508   C35.249760,110.581009 37.734612,113.003510 40.295155,115.699203   C40.295155,115.699203 40.567047,115.779427 40.905048,116.310020   C45.933918,120.883087 50.962788,125.456154 56.193409,130.569473   C56.776688,131.053146 57.359962,131.536804 58.125900,132.602875   C59.154343,133.546112 60.182785,134.489349 61.291996,135.705688   C61.291996,135.705688 61.564541,135.788300 61.856506,136.274887   C62.568565,136.858704 63.280624,137.442535 64.150612,138.501892   C64.429085,138.668808 64.707558,138.835709 65.088837,139.530060   C65.388458,139.700882 65.688087,139.871704 66.137131,140.516922   C66.331528,140.819214 66.607903,140.983948 67.184280,141.649017   C71.569290,146.350494 76.107285,150.919571 80.311485,155.777527   C94.668053,172.366562 99.799355,191.076447 93.000534,212.451660   C91.244659,217.972061 91.923241,218.893616 97.625549,218.968307   C104.101135,219.053146 110.578857,219.072891 117.054619,219.011703   C121.606544,218.968704 125.449142,217.678528 127.007103,212.740204   C128.505051,207.992126 130.770294,203.375290 131.497070,198.520950   C132.561203,191.413177 133.867676,184.102875 130.890305,176.353775   C130.814377,175.920410 130.738449,175.487045 130.887970,174.305725   C130.227936,172.339355 129.614182,170.356003 128.900040,168.409485   C125.470490,159.061493 120.070984,150.992004 113.001236,143.998810   C113.001236,143.998810 112.975494,144.011932 112.791855,143.369873   C110.521759,141.256012 108.251663,139.142136 106.001137,137.000000   C106.001137,137.000000 105.972084,137.017883 105.790665,136.363403   C100.437325,132.092819 95.083977,127.822227 89.674896,123.322067   C89.674896,123.322067 89.444336,123.270554 89.074806,122.727921   C84.933472,119.880760 80.857697,116.932083 76.637489,114.207069   C67.134628,108.070999 57.560215,102.045738 47.999435,96.000679   C47.999435,96.000679 48.024086,95.984047 47.782928,95.328453   C45.526527,93.891609 43.270126,92.454765 40.837101,90.487938   C40.428772,90.108360 40.020439,89.728783 39.218716,88.851921   C38.148552,88.224129 37.078392,87.596336 35.803436,86.425995   C35.210930,85.949173 34.618423,85.472359 33.922741,84.466667   C33.621834,84.298141 33.320923,84.129608 32.997730,83.999573  M225.980270,37.989471   C225.980270,37.989471 225.935776,37.927689 225.184509,37.963924   C221.093887,39.959740 217.003250,41.955551 212.205704,44.053745   C209.815811,45.077915 207.425919,46.102085 204.304642,47.041122   C184.233032,57.156605 166.639511,70.615746 151.889801,86.542732   C145.565308,81.089424 139.764252,76.087448 133.399002,70.682457   C129.332993,67.529114 125.476059,64.047005 121.153046,61.297791   C114.290092,56.933311 107.115814,53.058376 99.842514,48.573463   C99.633881,48.296478 99.359093,48.189487 98.502808,48.137184   C98.332016,48.094578 98.161224,48.051968 97.628036,47.412693   C91.082153,44.613697 84.536278,41.814701 78.001450,39.000740   C78.001450,39.000740 77.985619,39.007076 77.813225,38.576290   C77.620712,38.286865 77.352196,38.165264 76.334457,38.149181   C75.886040,38.111683 75.437622,38.074184 74.707787,37.340652   C71.481300,36.536873 68.254814,35.733093 64.919052,34.192356   C64.156311,33.773163 63.435963,33.116837 62.624229,32.971737   C55.127480,31.631678 47.632301,30.257973 40.095215,29.185286   C38.125973,28.905020 36.012093,29.641047 33.369320,30.424444   C32.897907,32.671101 32.065891,34.910397 32.019844,37.165741   C31.853720,45.302109 31.769888,53.449829 32.035042,61.580868   C32.151245,65.144135 32.044071,69.578018 34.006302,72.061920   C40.927967,80.823753 50.145390,86.903297 61.212708,92.354385   C61.212708,82.411865 61.212708,73.469688 61.212708,63.567242   C64.138771,64.448441 66.423103,65.111046 68.691093,65.825554   C71.808151,66.807533 74.912834,67.828804 78.616447,69.191010   C80.648949,70.577148 82.656326,72.001892 84.718163,73.342934   C95.330574,80.245377 106.169640,86.826881 116.482216,94.150368   C121.128922,97.450226 125.074509,101.934906 128.740509,106.375450   C135.554550,114.629135 141.921280,123.251663 148.499603,131.700882   C149.360504,132.806625 150.371017,133.795898 151.312225,134.839127   C152.451340,133.780396 153.760864,132.854111 154.702866,131.642181   C162.854935,121.154221 170.940872,110.614868 179.727325,99.960548   C185.306564,95.338203 190.849426,90.670952 196.478531,86.110146   C199.917542,83.323792 203.489120,80.701057 207.478683,77.924278   C207.478683,77.924278 207.945328,77.794823 208.622894,77.639130   C214.771362,74.472336 220.919830,71.305542 227.780075,67.954048   C240.037582,64.274811 252.250427,60.433708 264.583862,57.029491   C267.688446,56.172581 269.233185,55.147156 269.000000,51.821781   C268.722870,47.870430 268.693054,43.901733 268.620819,39.317352   C268.584259,38.902271 268.547699,38.487190 268.706787,37.540405   C268.582581,37.005985 268.458374,36.471565 268.436493,35.250496   C268.460266,33.873623 268.484039,32.496754 268.749573,30.372644   C267.848175,29.317881 266.730316,27.229031 266.078339,27.365522   C258.013428,29.053905 250.016418,31.066658 241.272461,33.108662   C236.544220,34.727470 231.815964,36.346279 226.896774,37.563213   C226.579147,37.685856 226.261520,37.808502 225.980270,37.989471  M60.630173,217.538467   C60.720657,207.042877 60.811146,196.547302 60.924232,185.476135   C60.906300,185.284958 60.888363,185.093796 60.947968,184.053375   C60.969707,178.651443 60.961697,173.249130 61.027893,167.847748   C61.054253,165.696991 61.463261,163.532959 61.314041,161.401855   C61.023811,157.256760 60.462402,153.130646 59.951496,148.296707   C52.464520,138.750702 43.237209,131.016571 33.684559,122.940628   C31.642431,153.178085 32.154938,183.082748 32.031708,213.776428   C32.898102,215.406418 33.723675,218.417694 34.637444,218.444687   C41.094944,218.635513 47.570549,218.213730 54.792061,217.886887   C55.548946,217.907608 56.305836,217.928329 57.191402,218.301163   C57.429890,218.178513 57.668377,218.055847 58.443733,217.815384   C58.626400,217.801285 58.809071,217.787170 59.100479,218.147324   C59.401222,218.141312 59.701962,218.135315 60.630173,217.538467  M174.098709,186.952484   C174.098709,186.952484 174.150696,186.980072 173.766113,187.664780   C172.887329,197.132736 171.977982,206.598236 171.221695,216.075974   C171.184601,216.541046 172.485657,217.112915 174.019501,217.764786   C176.339355,217.857651 178.659195,217.950516 181.389755,218.551361   C185.262741,218.366776 189.135712,218.182190 193.939560,217.913834   C199.256195,217.829025 204.572830,217.744232 210.778015,217.857239   C212.889771,217.782852 215.001541,217.708450 217.973389,217.717651   C220.277618,217.693573 222.581848,217.669495 225.822800,217.849274   C235.915024,217.803680 246.007233,217.758087 256.992737,217.783768   C260.489868,217.596375 263.987000,217.408981 267.781708,217.266998   C267.781708,217.266998 268.086731,217.224365 268.546753,217.189529   C268.546753,217.189529 268.974518,217.016891 269.593353,216.438980   C269.726166,211.317947 270.013580,206.194687 269.940002,201.076630   C269.886658,197.364685 269.355194,193.659637 269.009003,190.004654   C269.009003,190.004654 269.068085,189.993866 268.487976,189.365967   C246.334488,189.274246 224.181000,189.182541 201.540680,188.987274   C201.540680,188.987274 201.044754,188.945129 201.076828,188.994553   C201.076828,188.994553 201.103882,188.942215 201.344727,188.226578   C205.264343,178.089371 208.597702,167.669312 213.304932,157.912064   C216.568970,151.146271 221.725342,145.293396 226.033875,139.007660   C226.033875,139.007660 226.009354,139.002457 226.701843,138.931976   C230.536224,135.957062 234.368240,132.979111 238.205719,130.008194   C241.197998,127.691620 244.197037,125.383797 247.891098,122.952827   C252.902863,120.920708 257.914612,118.888596 263.730072,116.940605   C268.168640,117.119621 270.015167,114.785614 269.993591,110.557899   C269.962372,104.439529 270.100037,98.316315 269.870789,92.206230   C269.823639,90.949089 268.479492,89.740616 267.192535,88.386353   C266.827789,88.331200 266.463013,88.276054 265.330383,88.050034   C263.882233,88.334244 262.434082,88.618454 260.238861,89.032600   C252.149872,91.891838 243.732513,94.063591 236.034103,97.740570   C213.872803,108.325462 197.336319,125.272415 185.915634,146.689301   C179.453049,158.808395 174.943649,172.028015 173.709457,186.199692   C173.832886,186.432037 173.956329,186.664398 174.098709,186.952484  z"/>
<path fill="#28546A" opacity="1.000000" stroke="none" d=" M227.087723,37.965088   C231.815964,36.346279 236.544220,34.727470 241.922302,33.294792   C243.848083,33.450199 245.126205,33.355988 246.399658,33.399208   C253.875488,33.652954 260.752991,28.119486 268.507812,31.119881   C268.484039,32.496754 268.460266,33.873623 268.159088,35.728569   C268.091492,36.828461 268.301331,37.450283 268.511139,38.072109   C268.547699,38.487190 268.584259,38.902271 268.284760,39.812263   C267.671448,42.714962 267.102753,45.132309 267.181396,47.528416   C267.318878,51.718784 266.199677,54.173523 261.539337,55.246643   C251.847961,57.478245 242.281982,60.291718 232.749084,63.148415   C230.315750,63.877609 228.198776,65.662575 225.556671,66.973190   C220.051483,69.496941 214.875763,71.915924 209.845856,74.607391   C208.911377,75.107414 208.563782,76.704216 207.945328,77.794823   C207.945328,77.794823 207.478683,77.924278 206.850601,77.956284   C204.807983,78.383148 203.124741,78.415459 202.022858,79.232140   C195.246170,84.254745 188.502045,89.334297 181.987274,94.687225   C180.518585,95.893974 180.001602,98.259010 179.046509,100.090836   C170.940872,110.614868 162.854935,121.154221 154.702866,131.642181   C153.760864,132.854111 152.451340,133.780396 151.312225,134.839127   C150.371017,133.795898 149.360504,132.806625 148.499603,131.700882   C141.921280,123.251663 135.554550,114.629135 128.740509,106.375450   C125.074509,101.934906 121.128922,97.450226 116.482216,94.150368   C106.169640,86.826881 95.330574,80.245377 84.718163,73.342934   C82.656326,72.001892 80.648949,70.577148 78.208687,68.692688   C73.388527,66.032333 69.038307,63.729031 64.544800,61.751293   C60.687286,60.053471 58.947777,61.752243 58.985363,65.793915   C59.039371,71.601532 58.993317,77.410057 58.992516,83.218201   C58.992023,86.774689 57.431988,87.997299 54.397770,85.854729   C49.135368,82.138771 43.835171,78.428162 38.938946,74.259445   C35.880665,71.655579 34.709160,68.130409 34.788853,63.653141   C34.988903,52.413986 34.298153,41.158974 33.964638,29.910320   C36.012093,29.641047 38.125973,28.905020 40.095215,29.185286   C47.632301,30.257973 55.127480,31.631678 62.624229,32.971737   C63.435963,33.116837 64.156311,33.773163 65.072197,34.907555   C68.479965,36.427399 71.734581,37.232040 74.989204,38.036682   C75.437622,38.074184 75.886040,38.111683 76.808716,38.341789   C77.484734,38.740200 77.718948,38.897758 77.985619,39.007076   C77.985619,39.007076 78.001450,39.000740 78.083733,39.346134   C84.774155,42.464142 91.382294,45.236752 97.990433,48.009361   C98.161224,48.051968 98.332016,48.094578 98.910065,48.350090   C99.538330,48.757393 99.790298,48.895172 100.073242,48.976345   C107.115814,53.058376 114.290092,56.933311 121.153046,61.297791   C125.476059,64.047005 129.332993,67.529114 133.709747,71.240295   C134.203186,72.430756 134.195206,73.245049 134.598068,73.667953   C138.692505,77.966080 142.794846,82.260132 147.014648,86.434326   C150.618729,89.999466 153.302628,89.606529 156.592209,85.698250   C165.128326,75.556641 174.975159,66.983177 186.743713,60.689068   C190.792679,58.523579 194.743088,56.106022 198.469238,53.428833   C200.908447,51.676308 202.863907,49.250504 205.036041,47.126259   C207.425919,46.102085 209.815811,45.077915 212.969025,44.019718   C218.439529,43.254295 223.012283,42.252144 225.935776,37.927689   C225.935776,37.927689 225.980270,37.989471 226.247864,37.976059   C226.706207,37.963467 226.896973,37.964279 227.087723,37.965088  z"/>
<path fill="#28546A" opacity="1.000000" stroke="none" d=" M224.886078,217.645447   C222.581848,217.669495 220.277618,217.693573 217.367661,217.377411   C214.471115,217.244583 212.180283,217.452011 209.889465,217.659439   C204.572830,217.744232 199.256195,217.829025 193.152908,217.703659   C188.570526,217.676788 184.774780,217.860092 180.979050,218.043396   C178.659195,217.950516 176.339355,217.857651 173.555588,217.264893   C173.278641,211.016342 173.454376,205.267273 173.656311,199.519150   C173.803177,195.338821 173.984650,191.159714 174.150696,186.980072   C174.150696,186.980072 174.098709,186.952484 174.089355,186.720184   C174.080002,186.487900 174.057495,186.078690 174.057495,186.078690   C174.943649,172.028015 179.453049,158.808395 185.915634,146.689301   C197.336319,125.272415 213.872803,108.325462 236.034103,97.740570   C243.732513,94.063591 252.149872,91.891838 260.863495,89.211090   C263.024841,89.000031 264.561554,88.610474 266.098267,88.220909   C266.463013,88.276054 266.827789,88.331200 267.525055,88.865173   C267.892120,94.175201 267.806763,99.011063 267.993927,103.836349   C268.192810,108.963867 268.576599,114.052956 262.926361,116.856476   C257.914612,118.888596 252.902863,120.920708 247.106216,122.995651   C241.713974,122.977722 237.892670,123.819504 235.058243,128.344879   C233.242477,131.243881 229.695999,133.058853 226.925385,135.359787   C226.620041,135.094940 226.314697,134.830093 226.009354,134.565247   C226.009354,136.044312 226.009354,137.523392 226.009354,139.002457   C226.009354,139.002457 226.033875,139.007660 225.656281,139.009003   C224.234634,139.383530 222.812332,139.445541 222.207916,140.180344   C218.256638,144.983719 213.390015,149.436401 210.888412,154.942337   C206.333878,164.966629 203.172333,175.628922 199.601776,186.083817   C199.362656,186.783951 200.569534,187.977936 201.103882,188.942215   C201.103882,188.942215 201.076828,188.994553 201.044678,189.236084   C201.011139,189.654648 201.009766,189.831650 201.327408,190.275696   C203.283234,190.694244 204.919785,190.974426 206.556854,190.977570   C224.831970,191.012543 243.107224,190.980026 261.382294,191.022522   C267.436340,191.036591 267.990356,191.643967 268.002136,197.531738   C268.013794,203.346497 267.994720,209.161346 267.712708,215.055939   C267.452240,215.831024 267.468170,216.526306 267.484131,217.221588   C263.987000,217.408981 260.489868,217.596375 256.356018,217.419327   C255.153259,216.751831 254.589600,216.189743 254.020813,216.184494   C245.260391,216.103653 236.498810,216.046600 227.739136,216.139526   C226.782898,216.149673 225.836853,217.120300 224.886078,217.645447  z"/>
<path fill="#B5CBD0" opacity="1.000000" stroke="none" d=" M10.208639,48.428692   C10.093694,48.248238 10.055752,48.052834 10.734795,47.814102   C13.271270,47.853928 15.167764,47.922123 17.057793,48.426033   C17.141371,54.420128 16.374882,60.173435 17.581985,65.477600   C18.619921,70.038391 19.579767,75.852493 26.004858,76.997818   C26.004858,76.997818 25.999859,77.000000 25.974815,77.384781   C26.093319,81.689148 28.258108,83.262642 32.011623,82.992073   C32.011623,82.992073 31.999826,83.000565 32.116184,83.214363   C32.436470,83.705986 32.704777,83.889862 33.037468,83.979797   C33.037468,83.979797 32.997730,83.999573 33.108833,84.210739   C33.488598,84.613113 33.757259,84.804329 34.025917,84.995537   C34.618423,85.472359 35.210930,85.949173 35.927174,87.091858   C37.237976,88.288208 38.425041,88.818710 39.612106,89.349213   C40.020439,89.728783 40.428772,90.108360 40.747986,91.112328   C41.455563,96.028259 44.930218,95.675995 48.024086,95.984047   C48.024086,95.984047 47.999435,96.000679 48.050446,96.341431   C49.377254,98.092239 50.438148,99.816574 51.964466,100.860260   C60.500874,106.697403 69.041817,112.543068 77.812614,118.014908   C81.390305,120.246941 85.549629,121.546669 89.444336,123.270554   C89.444336,123.270554 89.674896,123.322067 89.570709,123.776245   C94.155357,129.542328 98.917290,134.759872 105.972084,137.017883   C105.972084,137.017883 106.001137,137.000000 105.986412,137.377579   C108.306297,139.840744 110.640900,141.926331 112.975494,144.011932   C112.975494,144.011932 113.001236,143.998810 112.986816,144.380554   C113.621727,146.270020 114.133453,147.856476 114.943459,149.272278   C119.155685,156.634750 123.415054,163.970810 127.731491,171.272629   C128.536606,172.634598 129.676910,173.798416 130.662537,175.053680   C130.738449,175.487045 130.814377,175.920410 130.682343,176.962677   C130.310791,180.370132 129.884277,183.182632 130.031693,185.964706   C130.524658,195.267456 129.097519,204.033600 124.577446,212.370758   C122.592697,216.031570 120.232483,217.275177 116.273888,217.073227   C110.955711,216.801941 105.612770,217.040863 100.280785,217.008423   C94.813377,216.975174 94.443153,216.514221 95.716789,211.246048   C98.419182,200.068161 98.772705,189.010178 95.506432,177.775452   C92.189896,166.367798 84.972130,157.570877 77.365501,149.047852   C74.497772,145.834641 70.466904,143.659500 66.966270,141.011124   C66.607903,140.983948 66.331528,140.819214 65.957169,140.053207   C65.578903,139.305679 65.315178,139.110062 64.986031,139.002625   C64.707558,138.835709 64.429085,138.668808 64.057556,137.902924   C63.164513,136.798721 62.364529,136.293518 61.564541,135.788300   C61.564541,135.788300 61.291996,135.705688 61.385105,135.221802   C60.299889,133.832108 59.121567,132.926300 57.943241,132.020477   C57.359962,131.536804 56.776688,131.053146 56.088982,129.931519   C53.028358,125.893547 50.280815,122.274101 47.030460,119.183441   C45.332375,117.568794 42.750019,116.884125 40.567047,115.779427   C40.567047,115.779427 40.295155,115.699203 40.396141,115.225540   C39.034542,110.952553 37.014259,107.791565 32.361351,107.643852   C31.830608,107.115349 31.299864,106.586845 30.694790,105.483932   C28.741116,102.940750 26.861769,100.971985 24.982420,99.003227   C24.628307,98.959732 24.353600,98.788696 24.074585,97.887268   C22.282848,94.500290 20.236715,91.864830 18.934158,88.902428   C15.806811,81.789925 10.671441,75.493179 10.778883,67.029938   C10.834007,62.687851 9.604990,58.329468 8.956303,53.978451   C8.998074,53.241596 9.039845,52.504745 9.451563,51.271126   C9.950553,49.992470 10.079597,49.210579 10.208639,48.428692  z"/>
<path fill="#28556C" opacity="1.000000" stroke="none" d=" M58.991737,217.773041   C58.809071,217.787170 58.626400,217.801285 57.964302,217.872559   C57.484875,217.929749 57.062721,217.949051 57.062721,217.949051   C56.305836,217.928329 55.548946,217.907608 54.084511,217.683411   C49.132664,217.312134 44.812271,217.564255 40.673443,216.814331   C38.303017,216.384857 36.227676,214.326736 34.259895,212.664810   C34.665970,210.358200 34.972889,208.388840 34.975796,206.419037   C35.010868,182.655365 34.991207,158.891602 35.021870,135.127930   C35.024265,133.268921 35.296345,131.410294 35.443089,129.551483   C35.939369,129.305511 36.435650,129.059555 36.931931,128.813583   C42.622448,134.543213 48.312965,140.272842 53.919838,146.042389   C53.836189,146.082291 53.818306,146.294281 53.818306,146.294281   C53.818306,146.294281 53.997513,145.996613 54.311546,146.044250   C55.712536,146.728683 56.799488,147.365479 57.994041,148.409561   C58.404736,151.099152 58.951508,153.379517 58.969620,155.664093   C59.057720,166.779465 59.004341,177.895950 59.006271,189.264801   C59.015827,189.686066 59.020161,189.854553 59.013428,190.489120   C58.998821,199.894485 58.995281,208.833755 58.991737,217.773041  z"/>
<path fill="#2E485A" opacity="1.000000" stroke="none" d=" M57.886436,148.002289   C56.799488,147.365479 55.712536,146.728683 54.312790,146.045929   C54.000000,146.000000 54.003479,146.002472 54.003479,146.002472   C48.312965,140.272842 42.622448,134.543213 36.931931,128.813583   C36.435650,129.059555 35.939369,129.305511 35.443089,129.551483   C35.296345,131.410294 35.024265,133.268921 35.021870,135.127930   C34.991207,158.891602 35.010868,182.655365 34.975796,206.419037   C34.972889,208.388840 34.665970,210.358200 33.936974,212.663010   C32.943851,212.990585 32.514057,212.982895 32.084263,212.975204   C32.154938,183.082748 31.642431,153.178085 33.684559,122.940628   C43.237209,131.016571 52.464520,138.750702 59.969223,148.642426   C59.986946,148.988159 59.961514,148.997345 59.707436,148.863663   C58.931053,148.487411 58.408745,148.244858 57.886436,148.002289  z"/>
<path fill="#A7B1B4" opacity="1.000000" stroke="none" d=" M67.075272,141.330078   C70.466904,143.659500 74.497772,145.834641 77.365501,149.047852   C84.972130,157.570877 92.189896,166.367798 95.506432,177.775452   C98.772705,189.010178 98.419182,200.068161 95.716789,211.246048   C94.443153,216.514221 94.813377,216.975174 100.280785,217.008423   C105.612770,217.040863 110.955711,216.801941 116.273888,217.073227   C120.232483,217.275177 122.592697,216.031570 124.577446,212.370758   C129.097519,204.033600 130.524658,195.267456 130.031693,185.964706   C129.884277,183.182632 130.310791,180.370132 130.719238,177.291138   C133.867676,184.102875 132.561203,191.413177 131.497070,198.520950   C130.770294,203.375290 128.505051,207.992126 127.007103,212.740204   C125.449142,217.678528 121.606544,218.968704 117.054619,219.011703   C110.578857,219.072891 104.101135,219.053146 97.625549,218.968307   C91.923241,218.893616 91.244659,217.972061 93.000534,212.451660   C99.799355,191.076447 94.668053,172.366562 80.311485,155.777527   C76.107285,150.919571 71.569290,146.350494 67.075272,141.330078  z"/>
<path fill="#2D4455" opacity="1.000000" stroke="none" d=" M33.666977,30.167381   C34.298153,41.158974 34.988903,52.413986 34.788853,63.653141   C34.709160,68.130409 35.880665,71.655579 38.938946,74.259445   C43.835171,78.428162 49.135368,82.138771 54.397770,85.854729   C57.431988,87.997299 58.992023,86.774689 58.992516,83.218201   C58.993317,77.410057 59.039371,71.601532 58.985363,65.793915   C58.947777,61.752243 60.687286,60.053471 64.544800,61.751293   C69.038307,63.729031 73.388527,66.032333 77.911873,68.513802   C74.912834,67.828804 71.808151,66.807533 68.691093,65.825554   C66.423103,65.111046 64.138771,64.448441 61.212708,63.567242   C61.212708,73.469688 61.212708,82.411865 61.212708,92.354385   C50.145390,86.903297 40.927967,80.823753 34.006302,72.061920   C32.044071,69.578018 32.151245,65.144135 32.035042,61.580868   C31.769888,53.449829 31.853720,45.302109 32.019844,37.165741   C32.065891,34.910397 32.897907,32.671101 33.666977,30.167381  z"/>
<path fill="#2B4858" opacity="1.000000" stroke="none" d=" M204.670349,47.083694   C202.863907,49.250504 200.908447,51.676308 198.469238,53.428833   C194.743088,56.106022 190.792679,58.523579 186.743713,60.689068   C174.975159,66.983177 165.128326,75.556641 156.592209,85.698250   C153.302628,89.606529 150.618729,89.999466 147.014648,86.434326   C142.794846,82.260132 138.692505,77.966080 134.598068,73.667953   C134.195206,73.245049 134.203186,72.430756 133.991837,71.441803   C139.764252,76.087448 145.565308,81.089424 151.889801,86.542732   C166.639511,70.615746 184.233032,57.156605 204.670349,47.083694  z"/>
<path fill="#254353" opacity="1.000000" stroke="none" d=" M201.224304,188.584396   C200.569534,187.977936 199.362656,186.783951 199.601776,186.083817   C203.172333,175.628922 206.333878,164.966629 210.888412,154.942337   C213.390015,149.436401 218.256638,144.983719 222.207916,140.180344   C222.812332,139.445541 224.234634,139.383530 225.657440,139.021484   C221.725342,145.293396 216.568970,151.146271 213.304932,157.912064   C208.597702,167.669312 205.264343,178.089371 201.224304,188.584396  z"/>
<path fill="#A5AAAF" opacity="1.000000" stroke="none" d=" M25.907904,76.663231   C19.579767,75.852493 18.619921,70.038391 17.581985,65.477600   C16.374882,60.173435 17.141371,54.420128 17.125286,48.038673   C18.246832,43.278851 19.190123,39.310219 20.380302,35.417057   C21.118979,33.000797 20.368078,31.991856 17.956852,31.966602   C19.146309,30.210363 20.335764,28.454126 21.525221,26.697889   C22.085001,26.901991 22.644779,27.106094 23.204559,27.310196   C22.708399,30.666561 22.494102,34.094597 21.662386,37.365639   C19.316000,46.593704 17.418167,55.901348 20.108694,65.266495   C21.232199,69.177177 23.864609,72.654358 25.907904,76.663231  z"/>
<path fill="#284051" opacity="1.000000" stroke="none" d=" M225.936447,66.962456   C228.198776,65.662575 230.315750,63.877609 232.749084,63.148415   C242.281982,60.291718 251.847961,57.478245 261.539337,55.246643   C266.199677,54.173523 267.318878,51.718784 267.181396,47.528416   C267.102753,45.132309 267.671448,42.714962 268.252380,40.123863   C268.693054,43.901733 268.722870,47.870430 269.000000,51.821781   C269.233185,55.147156 267.688446,56.172581 264.583862,57.029491   C252.250427,60.433708 240.037582,64.274811 227.272415,67.816887   C226.488663,67.440636 226.212555,67.201538 225.936447,66.962456  z"/>
<path fill="#A7B1B4" opacity="1.000000" stroke="none" d=" M89.259567,122.999237   C85.549629,121.546669 81.390305,120.246941 77.812614,118.014908   C69.041817,112.543068 60.500874,106.697403 51.964466,100.860260   C50.438148,99.816574 49.377254,98.092239 48.058189,96.328781   C57.560215,102.045738 67.134628,108.070999 76.637489,114.207069   C80.857697,116.932083 84.933472,119.880760 89.259567,122.999237  z"/>
<path fill="#A5AAAF" opacity="1.000000" stroke="none" d=" M8.577984,54.191826   C9.604990,58.329468 10.834007,62.687851 10.778883,67.029938   C10.671441,75.493179 15.806811,81.789925 18.934158,88.902428   C20.236715,91.864830 22.282848,94.500290 23.993740,97.651596   C15.905996,90.409042 10.871156,81.068245 9.101064,70.174606   C8.261188,65.005783 8.467377,59.666988 8.577984,54.191826  z"/>
<path fill="#163041" opacity="1.000000" stroke="none" d=" M267.989136,214.976151   C267.994720,209.161346 268.013794,203.346497 268.002136,197.531738   C267.990356,191.643967 267.436340,191.036591 261.382294,191.022522   C243.107224,190.980026 224.831970,191.012543 206.556854,190.977570   C204.919785,190.974426 203.283234,190.694244 201.579666,190.273773   C201.681122,189.998016 201.849365,189.991241 202.485168,189.983704   C224.991180,189.986588 247.029633,189.990219 269.068085,189.993866   C269.068085,189.993866 269.009003,190.004654 269.001343,190.449509   C268.987274,199.601868 268.980896,208.309387 268.974518,217.016891   C268.974518,217.016891 268.546753,217.189529 268.293152,216.830414   C268.022705,215.972916 268.005920,215.474533 267.989136,214.976151  z"/>
<path fill="#2B4253" opacity="1.000000" stroke="none" d=" M179.386917,100.025696   C180.001602,98.259010 180.518585,95.893974 181.987274,94.687225   C188.502045,89.334297 195.246170,84.254745 202.022858,79.232140   C203.124741,78.415459 204.807983,78.383148 206.611847,77.996567   C203.489120,80.701057 199.917542,83.323792 196.478531,86.110146   C190.849426,90.670952 185.306564,95.338203 179.386917,100.025696  z"/>
<path fill="#314B5C" opacity="1.000000" stroke="none" d=" M226.355591,138.967224   C226.009354,137.523392 226.009354,136.044312 226.009354,134.565247   C226.314697,134.830093 226.620041,135.094940 226.925385,135.359787   C229.695999,133.058853 233.242477,131.243881 235.058243,128.344879   C237.892670,123.819504 241.713974,122.977722 246.757202,123.055283   C244.197037,125.383797 241.197998,127.691620 238.205719,130.008194   C234.368240,132.979111 230.536224,135.957062 226.355591,138.967224  z"/>
<path fill="#A7B1B4" opacity="1.000000" stroke="none" d=" M130.775253,174.679703   C129.676910,173.798416 128.536606,172.634598 127.731491,171.272629   C123.415054,163.970810 119.155685,156.634750 114.943459,149.272278   C114.133453,147.856476 113.621727,146.270020 112.980209,144.393372   C120.070984,150.992004 125.470490,159.061493 128.900040,168.409485   C129.614182,170.356003 130.227936,172.339355 130.775253,174.679703  z"/>
<path fill="#BAC6CA" opacity="1.000000" stroke="none" d=" M17.976873,31.979465   C20.368078,31.991856 21.118979,33.000797 20.380302,35.417057   C19.190123,39.310219 18.246832,43.278851 17.131752,47.602959   C15.167764,47.922123 13.271270,47.853928 10.810585,47.682259   C10.246393,47.578789 10.147360,47.490723 10.600300,47.265030   C11.715209,44.695858 12.377178,42.352379 13.039146,40.008900   C13.352036,39.213490 13.664926,38.418083 14.278257,37.176888   C14.807137,36.525749 14.940551,36.270695 14.978941,35.965931   C15.009691,35.609901 15.174205,35.333481 16.038099,34.977383   C17.057652,33.864452 17.511587,32.910812 17.965523,31.957167   C17.965521,31.957167 17.996893,31.992329 17.976873,31.979465  z"/>
<path fill="#284051" opacity="1.000000" stroke="none" d=" M268.628693,30.746262   C260.752991,28.119486 253.875488,33.652954 246.399658,33.399208   C245.126205,33.355988 243.848083,33.450199 242.287018,33.238365   C250.016418,31.066658 258.013428,29.053905 266.078339,27.365522   C266.730316,27.229031 267.848175,29.317881 268.628693,30.746262  z"/>
<path fill="#435661" opacity="1.000000" stroke="none" d=" M268.778015,189.679916   C247.029633,189.990219 224.991180,189.986588 202.478943,189.760437   C202.005157,189.537933 202.027512,189.090820 202.027512,189.090820   C224.181000,189.182541 246.334488,189.274246 268.778015,189.679916  z"/>
<path fill="#193442" opacity="1.000000" stroke="none" d=" M263.328217,116.898537   C268.576599,114.052956 268.192810,108.963867 267.993927,103.836349   C267.806763,99.011063 267.892120,94.175201 267.795349,88.926849   C268.479492,89.740616 269.823639,90.949089 269.870789,92.206230   C270.100037,98.316315 269.962372,104.439529 269.993591,110.557899   C270.015167,114.785614 268.168640,117.119621 263.328217,116.898537  z"/>
<path fill="#213747" opacity="1.000000" stroke="none" d=" M173.958405,187.322418   C173.984650,191.159714 173.803177,195.338821 173.656311,199.519150   C173.454376,205.267273 173.278641,211.016342 173.127625,217.200027   C172.485657,217.112915 171.184601,216.541046 171.221695,216.075974   C171.977982,206.598236 172.887329,197.132736 173.958405,187.322418  z"/>
<path fill="#213747" opacity="1.000000" stroke="none" d=" M225.354431,217.747360   C225.836853,217.120300 226.782898,216.149673 227.739136,216.139526   C236.498810,216.046600 245.260391,216.103653 254.020813,216.184494   C254.589600,216.189743 255.153259,216.751831 255.909378,217.383698   C246.007233,217.758087 235.915024,217.803680 225.354431,217.747360  z"/>
<path fill="#2D3F4A" opacity="1.000000" stroke="none" d=" M32.057983,213.375824   C32.514057,212.982895 32.943851,212.990585 33.696564,213.000061   C36.227676,214.326736 38.303017,216.384857 40.673443,216.814331   C44.812271,217.564255 49.132664,217.312134 53.708672,217.733658   C47.570549,218.213730 41.094944,218.635513 34.637444,218.444687   C33.723675,218.417694 32.898102,215.406418 32.057983,213.375824  z"/>
<path fill="#294453" opacity="1.000000" stroke="none" d=" M225.556671,66.973175   C226.212555,67.201538 226.488663,67.440636 226.916534,67.909241   C220.919830,71.305542 214.771362,74.472336 208.284119,77.716980   C208.563782,76.704216 208.911377,75.107414 209.845856,74.607391   C214.875763,71.915924 220.051483,69.496941 225.556671,66.973175  z"/>
<path fill="#2A4353" opacity="1.000000" stroke="none" d=" M60.000134,148.992401   C60.462402,153.130646 61.023811,157.256760 61.314041,161.401855   C61.463261,163.532959 61.054253,165.696991 61.027893,167.847748   C60.961697,173.249130 60.969707,178.651443 60.686768,184.144226   C60.270882,172.489151 60.116199,160.743256 59.961514,148.997345   C59.961514,148.997345 59.986946,148.988159 60.000134,148.992401  z"/>
<path fill="#A7B1B4" opacity="1.000000" stroke="none" d=" M40.736046,116.044724   C42.750019,116.884125 45.332375,117.568794 47.030460,119.183441   C50.280815,122.274101 53.028358,125.893547 55.988106,129.661392   C50.962788,125.456154 45.933918,120.883087 40.736046,116.044724  z"/>
<path fill="#A7B1B4" opacity="1.000000" stroke="none" d=" M105.881378,136.690643   C98.917290,134.759872 94.155357,129.542328 89.598579,123.891037   C95.083977,127.822227 100.437325,132.092819 105.881378,136.690643  z"/>
<path fill="#19384C" opacity="1.000000" stroke="none" d=" M59.707436,148.863663   C60.116199,160.743256 60.270882,172.489151 60.647999,184.568848   C60.888363,185.093796 60.906300,185.284958 60.709084,185.978210   C59.996311,187.324203 59.498684,188.168121 59.001053,189.012039   C59.004341,177.895950 59.057720,166.779465 58.969620,155.664093   C58.951508,153.379517 58.404736,151.099152 57.994038,148.409576   C58.408745,148.244858 58.931053,148.487411 59.707436,148.863663  z"/>
<path fill="#284656" opacity="1.000000" stroke="none" d=" M97.809235,47.711029   C91.382294,45.236752 84.774155,42.464142 78.078201,39.353615   C84.536278,41.814701 91.082153,44.613697 97.809235,47.711029  z"/>
<path fill="#29424F" opacity="1.000000" stroke="none" d=" M59.006271,189.264801   C59.498684,188.168121 59.996311,187.324203 60.697784,186.265991   C60.811146,196.547302 60.720657,207.042877 60.311378,217.353638   C59.996506,212.688431 60.129429,208.203400 59.968472,203.728958   C59.803928,199.154922 59.351116,194.591248 59.024498,190.023041   C59.020161,189.854553 59.015827,189.686066 59.006271,189.264801  z"/>
<path fill="#1A3749" opacity="1.000000" stroke="none" d=" M59.013428,190.489120   C59.351116,194.591248 59.803928,199.154922 59.968472,203.728958   C60.129429,208.203400 59.996506,212.688431 59.997643,217.649048   C59.701962,218.135315 59.401222,218.141312 59.046108,217.960175   C58.995281,208.833755 58.998821,199.894485 59.013428,190.489120  z"/>
<path fill="#2B4651" opacity="1.000000" stroke="none" d=" M225.560150,37.945808   C223.012283,42.252144 218.439529,43.254295 213.322495,43.968529   C217.003250,41.955551 221.093887,39.959740 225.560150,37.945808  z"/>
<path fill="#2D414C" opacity="1.000000" stroke="none" d=" M269.283936,216.727936   C268.980896,208.309387 268.987274,199.601868 269.015289,190.422943   C269.355194,193.659637 269.886658,197.364685 269.940002,201.076630   C270.013580,206.194687 269.726166,211.317947 269.283936,216.727936  z"/>
<path fill="#213747" opacity="1.000000" stroke="none" d=" M181.184402,218.297394   C184.774780,217.860092 188.570526,217.676788 192.687469,217.745544   C189.135712,218.182190 185.262741,218.366776 181.184402,218.297394  z"/>
<path fill="#284656" opacity="1.000000" stroke="none" d=" M74.848495,37.688667   C71.734581,37.232040 68.479965,36.427399 65.126831,35.276035   C68.254814,35.733093 71.481300,36.536873 74.848495,37.688667  z"/>
<path fill="#A7B1B4" opacity="1.000000" stroke="none" d=" M32.563129,107.901184   C37.014259,107.791565 39.034542,110.952553 40.358292,115.088943   C37.734612,113.003510 35.249760,110.581009 32.563129,107.901184  z"/>
<path fill="#A7B1B4" opacity="1.000000" stroke="none" d=" M47.903507,95.656250   C44.930218,95.675995 41.455563,96.028259 40.836296,91.377319   C43.270126,92.454765 45.526527,93.891609 47.903507,95.656250  z"/>
<path fill="#A5AAAF" opacity="1.000000" stroke="none" d=" M31.900551,82.679169   C28.258108,83.262642 26.093319,81.689148 25.976049,77.382301   C27.931379,78.785446 29.860430,80.575859 31.900551,82.679169  z"/>
<path fill="#A7B1B4" opacity="1.000000" stroke="none" d=" M112.883682,143.690903   C110.640900,141.926331 108.306297,139.840744 105.976631,137.391724   C108.251663,139.142136 110.521759,141.256012 112.883682,143.690903  z"/>
<path fill="#A7B1B4" opacity="1.000000" stroke="none" d=" M25.031935,99.344162   C26.861769,100.971985 28.741116,102.940750 30.503342,105.277512   C28.617964,103.658714 26.849707,101.671906 25.031935,99.344162  z"/>
<path fill="#A5AAAF" opacity="1.000000" stroke="none" d=" M12.727772,40.177475   C12.377178,42.352379 11.715209,44.695858 10.625313,47.203671   C10.937057,45.027351 11.676726,42.686703 12.727772,40.177475  z"/>
<path fill="#213747" opacity="1.000000" stroke="none" d=" M210.333740,217.758331   C212.180283,217.452011 214.471115,217.244583 216.937622,217.335602   C215.001541,217.708450 212.889771,217.782852 210.333740,217.758331  z"/>
<path fill="#193442" opacity="1.000000" stroke="none" d=" M265.714325,88.135468   C264.561554,88.610474 263.024841,89.000031 261.237030,89.146118   C262.434082,88.618454 263.882233,88.334244 265.714325,88.135468  z"/>
<path fill="#A7B1B4" opacity="1.000000" stroke="none" d=" M58.034569,132.311676   C59.121567,132.926300 60.299889,133.832108 61.344719,135.085266   C60.182785,134.489349 59.154343,133.546112 58.034569,132.311676  z"/>
<path fill="#A5AAAF" opacity="1.000000" stroke="none" d=" M39.415413,89.100571   C38.425041,88.818710 37.237976,88.288208 36.029572,87.363129   C37.078392,87.596336 38.148552,88.224129 39.415413,89.100571  z"/>
<path fill="#A7B1B4" opacity="1.000000" stroke="none" d=" M61.710526,136.031586   C62.364529,136.293518 63.164513,136.798721 63.978592,137.665161   C63.280624,137.442535 62.568565,136.858704 61.710526,136.031586  z"/>
<path fill="#A5AAAF" opacity="1.000000" stroke="none" d=" M17.658997,32.076286   C17.511587,32.910812 17.057652,33.864452 16.272598,34.896011   C16.411810,34.047752 16.882141,33.121578 17.658997,32.076286  z"/>
<path fill="#284051" opacity="1.000000" stroke="none" d=" M268.608948,37.806259   C268.301331,37.450283 268.091492,36.828461 268.107910,36.071892   C268.458374,36.471565 268.582581,37.005985 268.608948,37.806259  z"/>
<path fill="#A5AAAF" opacity="1.000000" stroke="none" d=" M9.984423,48.639256   C10.079597,49.210579 9.950553,49.992470 9.509486,50.906013   C9.385043,50.308388 9.572625,49.579105 9.984423,48.639256  z"/>
<path fill="#213747" opacity="1.000000" stroke="none" d=" M267.712708,215.055939   C268.005920,215.474533 268.022705,215.972916 268.063110,216.847839   C268.086731,217.224365 267.781708,217.266998 267.632904,217.244293   C267.468170,216.526306 267.452240,215.831024 267.712708,215.055939  z"/>
<path fill="#284656" opacity="1.000000" stroke="none" d=" M77.899422,38.791683   C77.718948,38.897758 77.484734,38.740200 77.145325,38.372940   C77.352196,38.165264 77.620712,38.286865 77.899422,38.791683  z"/>
<path fill="#2D3F4A" opacity="1.000000" stroke="none" d=" M57.127060,218.125107   C57.062721,217.949051 57.484875,217.929749 57.695869,217.931473   C57.668377,218.055847 57.429890,218.178513 57.127060,218.125107  z"/>
<path fill="#284656" opacity="1.000000" stroke="none" d=" M99.957878,48.774902   C99.790298,48.895172 99.538330,48.757393 99.167740,48.407742   C99.359093,48.189487 99.633881,48.296478 99.957878,48.774902  z"/>
<path fill="#2B4651" opacity="1.000000" stroke="none" d=" M226.992249,37.764153   C226.896973,37.964279 226.706207,37.963467 226.229675,37.946899   C226.261520,37.808502 226.579147,37.685856 226.992249,37.764153  z"/>
<path fill="#A5AAAF" opacity="1.000000" stroke="none" d=" M32.984184,83.713440   C32.704777,83.889862 32.436470,83.705986 32.119125,83.207916   C32.314106,83.140808 32.622501,83.293945 32.984184,83.713440  z"/>
<path fill="#A5AAAF" opacity="1.000000" stroke="none" d=" M33.974327,84.731102   C33.757259,84.804329 33.488598,84.613113 33.119976,84.191490   C33.320923,84.129608 33.621834,84.298141 33.974327,84.731102  z"/>
<path fill="#254353" opacity="1.000000" stroke="none" d=" M201.784088,189.039047   C202.027512,189.090820 202.005157,189.537933 202.011383,189.761200   C201.849365,189.991241 201.681122,189.998016 201.260635,190.006714   C201.009766,189.831650 201.011139,189.654648 201.028641,189.211380   C201.044754,188.945129 201.540680,188.987274 201.784088,189.039047  z"/>
<path fill="#213747" opacity="1.000000" stroke="none" d=" M173.883484,186.139191   C174.057495,186.078690 174.080002,186.487900 174.079880,186.692322   C173.956329,186.664398 173.832886,186.432037 173.883484,186.139191  z"/>
<path fill="#A5AAAF" opacity="1.000000" stroke="none" d=" M14.719452,36.024429   C14.940551,36.270695 14.807137,36.525749 14.403448,36.863434   C14.305452,36.691490 14.382708,36.387211 14.719452,36.024429  z"/>
<path fill="#A7B1B4" opacity="1.000000" stroke="none" d=" M65.037430,139.266342   C65.315178,139.110062 65.578903,139.305679 65.882462,139.816010   C65.688087,139.871704 65.388458,139.700882 65.037430,139.266342  z"/>
<path fill="#2E485A" opacity="1.000000" stroke="none" d=" M53.998756,145.998306   C53.997513,145.996613 53.818306,146.294281 53.818306,146.294281   C53.818306,146.294281 53.836189,146.082291 53.919834,146.042389   C54.003479,146.002472 54.000000,146.000000 53.998756,145.998306  z"/>
</svg>
